<svg width="13" height="13" viewBox="0 0 13 13" fill="none" xmlns="http://www.w3.org/2000/svg">
<rect x="2" y="2" width="9" height="9" fill="#EA4C89"/>
<rect x="4.33301" width="4.33333" height="13" fill="#EA4C89"/>
<rect x="3" y="1" width="7" height="11" fill="#EA4C89"/>
<rect x="12" y="3" width="7" height="11" transform="rotate(90 12 3)" fill="#EA4C89"/>
<rect y="9" width="5" height="13" transform="rotate(-90 0 9)" fill="#EA4C89"/>
<rect x="5" y="2" width="1" height="1" fill="#C32361"/>
<rect x="4" y="2" width="1" height="1" fill="#C32361"/>
<rect x="3" y="1" width="1" height="1" fill="#C32361"/>
<rect x="6" y="3" width="1" height="1" fill="#C32361"/>
<rect x="7" y="4" width="1" height="1" fill="#C32361"/>
<rect x="7" y="5" width="1" height="1" fill="#C32361"/>
<rect x="8" y="8" width="1" height="1" fill="#C32361"/>
<rect x="9" y="7" width="1" height="1" fill="#C32361"/>
<rect x="8" y="6" width="1" height="1" fill="#C32361"/>
<rect x="9" y="8" width="1" height="1" fill="#C32361"/>
<rect x="10" y="9" width="1" height="1" fill="#C32361"/>
<rect x="10" y="10" width="1" height="1" fill="#C32361"/>
<rect x="9" y="2" width="1" height="1" transform="rotate(90 9 2)" fill="#C32361"/>
<rect x="10" y="1" width="1" height="1" transform="rotate(90 10 1)" fill="#C32361"/>
<rect x="9" y="3" width="1" height="1" transform="rotate(90 9 3)" fill="#C32361"/>
<rect x="7" y="4" width="1" height="1" transform="rotate(90 7 4)" fill="#C32361"/>
<rect x="6" y="5" width="1" height="1" transform="rotate(90 6 5)" fill="#C32361"/>
<rect x="5" y="6" width="1" height="1" transform="rotate(90 5 6)" fill="#C32361"/>
<rect x="4" y="7" width="1" height="1" transform="rotate(90 4 7)" fill="#C32361"/>
<rect x="3" y="7" width="1" height="1" transform="rotate(90 3 7)" fill="#C32361"/>
<rect x="2" y="8" width="1" height="1" transform="rotate(90 2 8)" fill="#C32361"/>
<rect x="4" y="12" width="1" height="1" transform="rotate(-90 4 12)" fill="#C32361"/>
<rect x="4" y="11" width="1" height="1" transform="rotate(-90 4 11)" fill="#C32361"/>
<rect x="5" y="10" width="1" height="1" transform="rotate(-90 5 10)" fill="#C32361"/>
<rect x="6" y="10" width="1" height="1" transform="rotate(-90 6 10)" fill="#C32361"/>
<rect x="7" y="9" width="1" height="1" transform="rotate(-90 7 9)" fill="#C32361"/>
<rect x="10" y="8" width="1" height="1" transform="rotate(-90 10 8)" fill="#C32361"/>
<rect x="11" y="7" width="1" height="1" transform="rotate(-90 11 7)" fill="#C32361"/>
<rect x="12" y="7" width="1" height="1" transform="rotate(-90 12 7)" fill="#C32361"/>
</svg>
